<svg width="534" height="534" viewBox="0 0 534 534" fill="none" xmlns="http://www.w3.org/2000/svg">
<path fill-rule="evenodd" clip-rule="evenodd" d="M533.333 266.667C533.333 413.942 413.942 533.333 266.667 533.333C119.392 533.333 0 413.942 0 266.667C0 119.392 119.392 0 266.667 0C413.942 0 533.333 119.392 533.333 266.667Z" fill="url(#paint0_linear_1_2)"/>
<path fill-rule="evenodd" clip-rule="evenodd" d="M520.417 266.667C520.417 406.808 406.808 520.417 266.667 520.417C126.525 520.417 12.9166 406.808 12.9166 266.667C12.9166 126.525 126.525 12.9167 266.667 12.9167C406.808 12.9167 520.417 126.525 520.417 266.667Z" fill="white"/>
<path fill-rule="evenodd" clip-rule="evenodd" d="M438.333 156.667L295.625 296.25V469.791C295.625 472.917 282.083 475.417 266.667 475.625C251.875 475.417 237.708 472.917 237.708 469.791V296.25L95 156.667C92.708 154.375 100 143.541 111.25 132.291C122.5 121.041 133.541 113.75 135.625 116.041L266.458 243.75L397.291 116.041C399.583 113.75 410.417 121.041 421.667 132.291C432.917 143.541 440.417 154.375 438.333 156.667Z" fill="#EC1C24"/>
<defs>
<linearGradient id="paint0_linear_1_2" x1="266.667" y1="0" x2="266.667" y2="533.333" gradientUnits="userSpaceOnUse">
<stop stop-color="#F5F5F6"/>
<stop offset="1" stop-color="#EDEDEE"/>
</linearGradient>
</defs>
</svg>
